External Loads File
version=1
nRows=46
nColumns=13
Range=5.000000e-03-10 seconds
endheader
time 	forceRightX 	forceRightY 	forceRightZ 	pointRightX 	pointRightY 	pointRightZ 	forceLeftX 	forceLeftY 	forceLeftZ 	pointLeftX 	pointLeftY 	pointLeftZ 		
7.505000 24.367569 -67.091133 -0.000000 0.135466 0.432789 -0.098339 -19.568436 690.914924 -0.000000 0.324227 0.217961 -0.339572
7.510000 6.205424 -69.238658 -0.000000 0.142735 0.441090 -0.098540 17.358554 683.640313 -0.000000 0.317062 0.210138 -0.339440
7.515000 -10.515363 -70.440834 -0.000000 0.150447 0.448934 -0.098867 52.725604 672.402762 -0.000000 0.309805 0.202602 -0.339247
7.520000 -25.721623 -70.817591 -0.000000 0.159359 0.456508 -0.098178 87.251637 657.296335 -0.000000 0.302259 0.195701 -0.339102
7.525000 -38.775849 -70.638515 -0.000000 0.167409 0.463292 -0.099177 116.019928 639.190663 -0.000000 0.294400 0.189214 -0.339011
7.530000 -49.988976 -69.824898 -0.000000 0.176455 0.469674 -0.098852 142.611233 617.921381 -0.000000 0.286266 0.183240 -0.338957
7.535000 -58.991414 -68.628741 -0.000000 0.185142 0.475571 -0.099649 163.930488 594.558176 -0.000000 0.277995 0.177943 -0.338867
7.540000 -66.068494 -66.854102 -0.000000 0.194271 0.480945 -0.100091 182.312081 569.163530 -0.000000 0.269351 0.173084 -0.338852
7.545000 -71.213614 -64.462047 -0.000000 0.203608 0.485737 -0.100373 197.382508 542.552544 -0.000000 0.260423 0.168900 -0.338801
7.550000 -74.464435 -61.316626 -0.000000 0.212906 0.490031 -0.100766 209.305500 515.553182 -0.000000 0.251188 0.165385 -0.338827
7.555000 -75.873194 -57.170470 -0.000000 0.222336 0.493485 -0.101114 218.619150 488.906967 -0.000000 0.241797 0.162441 -0.338697
7.560000 -75.474373 -51.720756 -0.000000 0.231845 0.496510 -0.101443 225.922404 463.202698 -0.000000 0.232187 0.160137 -0.338698
7.565000 -73.217213 -44.809498 -0.000000 0.240995 0.498814 -0.101552 230.892051 439.147996 -0.000000 0.222552 0.158580 -0.338561
7.570000 -69.325674 -35.946940 -0.000000 0.250447 0.500359 -0.101696 235.205510 415.892645 -0.000000 0.212668 0.157590 -0.338818
7.575000 -63.840196 -25.031055 -0.000000 0.259730 0.501334 -0.101852 238.025665 393.337926 -0.000000 0.202907 0.157302 -0.338595
7.580000 -56.977358 -11.750236 -0.000000 0.268850 0.501604 -0.101935 239.459773 370.530598 -0.000000 0.193239 0.157701 -0.338272
7.585000 -48.966091 4.170824 -0.000000 0.277744 0.501091 -0.101992 239.173736 346.601138 -0.000000 0.183714 0.158735 -0.338211
7.590000 -40.074425 22.953808 -0.000000 0.286387 0.499886 -0.102100 236.558676 320.906690 -0.000000 0.174594 0.160561 -0.337932
7.595000 -30.656452 44.787673 -0.000000 0.294579 0.498062 -0.102061 231.156017 292.943521 -0.000000 0.165807 0.163170 -0.337736
7.600000 -21.187677 69.784906 -0.000000 0.302438 0.495590 -0.102045 222.588782 262.561170 -0.000000 0.157404 0.165897 -0.337515
7.605000 -12.108835 97.967955 -0.000000 0.309973 0.492421 -0.102044 211.026322 229.679883 -0.000000 0.149451 0.169590 -0.337355
7.610000 -3.959313 129.158013 -0.000000 0.317051 0.488427 -0.102359 196.419777 194.986596 -0.000000 0.141991 0.173714 -0.337130
7.615000 2.936634 163.024063 -0.000000 0.324056 0.483800 -0.102365 179.362499 159.211943 -0.000000 0.135049 0.178408 -0.336844
7.620000 8.099773 199.071392 -0.000000 0.330460 0.478449 -0.102149 160.415197 123.718109 -0.000000 0.128463 0.183633 -0.336865
7.625000 11.489181 236.671734 -0.000000 0.336588 0.472355 -0.102074 140.672313 89.626502 -0.000000 0.122277 0.189727 -0.336560
7.630000 12.786160 275.110289 -0.000000 0.342482 0.465515 -0.101856 121.023016 58.287101 -0.000000 0.116531 0.196247 -0.336322
7.635000 11.735421 313.579395 -0.000000 0.347980 0.457859 -0.101615 102.365329 30.720705 -0.000000 0.111077 0.202903 -0.336159
7.640000 8.443048 351.174699 -0.000000 0.353364 0.449554 -0.101347 85.499079 7.557782 -0.000000 0.106014 0.209884 -0.336135
7.645000 2.849324 386.973304 -0.000000 0.358306 0.440736 -0.100712 71.094701 -10.740292 -0.000000 0.101213 0.217251 -0.336153
7.650000 -4.373378 420.106997 -0.000000 0.362723 0.430668 -0.100421 59.734960 -24.106317 -0.000000 0.096760 0.224794 -0.336240
7.655000 -13.422876 449.869746 -0.000000 0.367310 0.421069 -0.100518 51.869197 -32.601854 -0.000000 0.092694 0.233030 -0.336419
7.660000 -24.144140 475.774066 -0.000000 0.371064 0.411078 -0.100268 47.701983 -36.651638 -0.000000 0.088997 0.241584 -0.336612
7.665000 -35.505924 497.653040 -0.000000 0.374563 0.400746 -0.100164 47.070487 -36.980516 -0.000000 0.085732 0.250538 -0.336828
7.670000 -47.309790 515.578294 -0.000000 0.377734 0.390222 -0.100214 49.577989 -34.386913 -0.000000 0.082934 0.259773 -0.336991
7.675000 -59.329269 529.832827 -0.000000 0.380417 0.379692 -0.100120 54.591443 -29.742763 -0.000000 0.080668 0.269340 -0.337098
7.680000 -70.955343 540.914922 -0.000000 0.382564 0.368931 -0.099914 61.366844 -23.899937 -0.000000 0.078879 0.279061 -0.337231
7.685000 -81.772459 549.464682 -0.000000 0.384171 0.358152 -0.099653 69.225543 -17.579874 -0.000000 0.077689 0.289146 -0.337296
7.690000 -91.318217 556.272966 -0.000000 0.385363 0.347119 -0.099458 77.559140 -11.414862 -0.000000 0.077041 0.299346 -0.337447
7.695000 -99.608936 562.116661 -0.000000 0.385994 0.336092 -0.099232 85.767216 -5.875447 -0.000000 0.077011 0.309723 -0.337496
7.700000 -106.171797 567.797022 -0.000000 0.386055 0.324985 -0.098988 93.209541 -1.356764 -0.000000 0.077546 0.320208 -0.337539
7.705000 -110.964758 573.912608 -0.000000 0.385444 0.313883 -0.098619 99.312402 1.996948 -0.000000 0.078699 0.330650 -0.337566
7.710000 -114.016893 580.879875 -0.000000 0.384126 0.302884 -0.098491 103.667281 4.231015 -0.000000 0.080106 0.340889 -0.337021
7.715000 -113.983642 589.209684 -0.000000 0.382390 0.291963 -0.097495 106.066653 5.222234 -0.000000 0.082528 0.351301 -0.337073
7.720000 -109.582861 599.198596 -0.000000 0.379477 0.281198 -0.098140 106.442461 4.847746 -0.000000 0.085476 0.362245 -0.337171
7.725000 -103.691926 610.140998 -0.000000 0.376113 0.270687 -0.097899 104.776298 3.712355 -0.000000 0.089113 0.372149 -0.337142
7.730000 -93.512845 622.124309 -0.000000 0.372286 0.260377 -0.097754 101.163813 1.413385 -0.000000 0.093432 0.382251 -0.337285
